HIERARCHY
ROOT hip
{
  OFFSET 0.00112043 5.09927 -9.65472
  CHANNELS 6 Xposition Yposition Zposition Zrotation Xrotation Yrotation
  JOINT abdomen
  {
    OFFSET 0 -1.186 -1.5018
    CHANNELS 3 Zrotation Xrotation Yrotation
    JOINT abdomen2
    {
      OFFSET 0 9.964 0.2134
      CHANNELS 3 Zrotation Xrotation Yrotation
      JOINT chest
      {
        OFFSET 0 13.134 -3.2573
        CHANNELS 3 Zrotation Xrotation Yrotation
        JOINT neck
        {
          OFFSET 0 20.686 -1.6905
          CHANNELS 3 Zrotation Xrotation Yrotation
          JOINT head
          {
            OFFSET 0 7.238 -0.1237
            CHANNELS 3 Zrotation Xrotation Yrotation
            End Site
            {
              OFFSET 0 0 0
            }
          }
        }
        JOINT lCollar
        {
          OFFSET 1.7069 20.075 5.0056
          CHANNELS 3 Zrotation Xrotation Yrotation
          JOINT lShldr
          {
            OFFSET 13.6458 -0.047 -4.849
            CHANNELS 3 Zrotation Xrotation Yrotation
            JOINT lForeArm
            {
              OFFSET 28.3255 -0.9759 2.2888
              CHANNELS 3 Zrotation Xrotation Yrotation
              JOINT lHand
              {
                OFFSET 22.1583 -0.53 10.8316
                CHANNELS 3 Zrotation Xrotation Yrotation
                JOINT lThumb1
                {
                  OFFSET 0.786 0.112 2.5817
                  CHANNELS 3 Zrotation Xrotation Yrotation
                  JOINT lThumb2
                  {
                    OFFSET 0.3601 -0.878 4.2331
                    CHANNELS 3 Zrotation Xrotation Yrotation
                    JOINT lThumb2_End
                    {
                      OFFSET 1.8127 -1.216 2.2227
                      CHANNELS 3 Zrotation Xrotation Yrotation
                      End Site
                      {
                        OFFSET 0.0181 -0.0122 0.0222
                      }
                    }
                  }
                }
                JOINT lCarpal1
                {
                  OFFSET 0.9571 1.114 1.7695
                  CHANNELS 3 Zrotation Xrotation Yrotation
                  JOINT lIndex1
                  {
                    OFFSET 4.1246 0.487 4.1451
                    CHANNELS 3 Zrotation Xrotation Yrotation
                    JOINT lIndex2
                    {
                      OFFSET 3.4052 -1.454 2.7682
                      CHANNELS 3 Zrotation Xrotation Yrotation
                      JOINT lIndex2_End
                      {
                        OFFSET 1.4531 -1.795 1.2713
                        CHANNELS 3 Zrotation Xrotation Yrotation
                        End Site
                        {
                          OFFSET 0.0145 -0.0179 0.0127
                        }
                      }
                    }
                  }
                  JOINT lMid1
                  {
                    OFFSET 5.6954 0.21 2.1184
                    CHANNELS 3 Zrotation Xrotation Yrotation
                    JOINT lMid2
                    {
                      OFFSET 3.9766 -1.54 2.3863
                      CHANNELS 3 Zrotation Xrotation Yrotation
                      JOINT lMid2_End
                      {
                        OFFSET 1.4042 -1.926 1.125
                        CHANNELS 3 Zrotation Xrotation Yrotation
                        End Site
                        {
                          OFFSET 0.014 -0.0193 0.0113
                        }
                      }
                    }
                  }
                }
                JOINT lCarpal2
                {
                  OFFSET 2.0956 0.66 -0.3894
                  CHANNELS 3 Zrotation Xrotation Yrotation
                  JOINT lRing1
                  {
                    OFFSET 5.0395 -0.09 2.4971
                    CHANNELS 3 Zrotation Xrotation Yrotation
                    JOINT lRing2
                    {
                      OFFSET 3.7921 -1.552 1.4806
                      CHANNELS 3 Zrotation Xrotation Yrotation
                      JOINT lRing2_End
                      {
                        OFFSET 1.4655 -1.808 0.9609
                        CHANNELS 3 Zrotation Xrotation Yrotation
                        End Site
                        {
                          OFFSET 0.0147 -0.0181 0.0096
                        }
                      }
                    }
                  }
                  JOINT lPinky1
                  {
                    OFFSET 4.9141 -1.269 0.3591
                    CHANNELS 3 Zrotation Xrotation Yrotation
                    JOINT lPinky2
                    {
                      OFFSET 3.1477 -1.685 0.8462
                      CHANNELS 3 Zrotation Xrotation Yrotation
                      JOINT lPinky2_End
                      {
                        OFFSET 0.8055 -1.585 0.7955
                        CHANNELS 3 Zrotation Xrotation Yrotation
                        End Site
                        {
                          OFFSET 0.0081 -0.0158 0.008
                        }
                      }
                    }
                  }
                }
              }
            }
          }
        }
        JOINT rCollar
        {
          OFFSET -1.7069 20.075 5.0056
          CHANNELS 3 Zrotation Xrotation Yrotation
          JOINT rShldr
          {
            OFFSET -13.6458 -0.047 -4.849
            CHANNELS 3 Zrotation Xrotation Yrotation
            JOINT rForeArm
            {
              OFFSET -28.3255 -0.9759 2.2888
              CHANNELS 3 Zrotation Xrotation Yrotation
              JOINT rHand
              {
                OFFSET -22.1583 -0.53 10.8316
                CHANNELS 3 Zrotation Xrotation Yrotation
                JOINT rThumb1
                {
                  OFFSET -0.786 0.112 2.5817
                  CHANNELS 3 Zrotation Xrotation Yrotation
                  JOINT rThumb2
                  {
                    OFFSET -0.3601 -0.878 4.2331
                    CHANNELS 3 Zrotation Xrotation Yrotation
                    JOINT rThumb2_End
                    {
                      OFFSET -1.8127 -1.216 2.2227
                      CHANNELS 3 Zrotation Xrotation Yrotation
                      End Site
                      {
                        OFFSET -0.0181 -0.0122 0.0222
                      }
                    }
                  }
                }
                JOINT rCarpal1
                {
                  OFFSET -0.9571 1.114 1.7695
                  CHANNELS 3 Zrotation Xrotation Yrotation
                  JOINT rIndex1
                  {
                    OFFSET -4.1246 0.487 4.1451
                    CHANNELS 3 Zrotation Xrotation Yrotation
                    JOINT rIndex2
                    {
                      OFFSET -3.4052 -1.454 2.7682
                      CHANNELS 3 Zrotation Xrotation Yrotation
                      JOINT rIndex2_End
                      {
                        OFFSET -1.4531 -1.795 1.2713
                        CHANNELS 3 Zrotation Xrotation Yrotation
                        End Site
                        {
                          OFFSET -0.0145 -0.018 0.0127
                        }
                      }
                    }
                  }
                  JOINT rMid1
                  {
                    OFFSET -5.6954 0.21 2.1184
                    CHANNELS 3 Zrotation Xrotation Yrotation
                    JOINT rMid2
                    {
                      OFFSET -3.9766 -1.54 2.3863
                      CHANNELS 3 Zrotation Xrotation Yrotation
                      JOINT rMid2_End
                      {
                        OFFSET -1.4042 -1.926 1.125
                        CHANNELS 3 Zrotation Xrotation Yrotation
                        End Site
                        {
                          OFFSET -0.014 -0.0193 0.0113
                        }
                      }
                    }
                  }
                }
                JOINT rCarpal2
                {
                  OFFSET -2.0956 0.66 -0.3894
                  CHANNELS 3 Zrotation Xrotation Yrotation
                  JOINT rRing1
                  {
                    OFFSET -5.0395 -0.09 2.4971
                    CHANNELS 3 Zrotation Xrotation Yrotation
                    JOINT rRing2
                    {
                      OFFSET -3.7921 -1.552 1.4806
                      CHANNELS 3 Zrotation Xrotation Yrotation
                      JOINT rRing2_End
                      {
                        OFFSET -1.4655 -1.808 0.9609
                        CHANNELS 3 Zrotation Xrotation Yrotation
                        End Site
                        {
                          OFFSET -0.0147 -0.0181 0.0096
                        }
                      }
                    }
                  }
                  JOINT rPinky1
                  {
                    OFFSET -4.9141 -1.269 0.3592
                    CHANNELS 3 Zrotation Xrotation Yrotation
                    JOINT rPinky2
                    {
                      OFFSET -3.1477 -1.685 0.8462
                      CHANNELS 3 Zrotation Xrotation Yrotation
                      JOINT rPinky2_End
                      {
                        OFFSET -0.8055 -1.585 0.7955
                        CHANNELS 3 Zrotation Xrotation Yrotation
                        End Site
                        {
                          OFFSET -0.0081 -0.0158 0.008
                        }
                      }
                    }
                  }
                }
              }
            }
          }
        }
      }
    }
  }
  JOINT lThigh
  {
    OFFSET 8.367 -8.2066 0.5982
    CHANNELS 3 Zrotation Xrotation Yrotation
    JOINT lShin
    {
      OFFSET 2.1923 -43.463 -0.4932
      CHANNELS 3 Zrotation Xrotation Yrotation
      JOINT lFoot
      {
        OFFSET 0.7333 -45.8593 -2.6451
        CHANNELS 3 Zrotation Xrotation Yrotation
        End Site
        {
          OFFSET 2.6618 -4.2699 12.3931
        }
      }
    }
  }
  JOINT rThigh
  {
    OFFSET -8.367 -8.2066 0.5982
    CHANNELS 3 Zrotation Xrotation Yrotation
    JOINT rShin
    {
      OFFSET -2.1923 -43.463 -0.4931
      CHANNELS 3 Zrotation Xrotation Yrotation
      JOINT rFoot
      {
        OFFSET -0.7333 -45.8593 -2.6451
        CHANNELS 3 Zrotation Xrotation Yrotation
        End Site
        {
          OFFSET -2.6618 -4.2699 12.3931
        }
      }
    }
  }
}
MOTION
Frames:	4
Frame Time:	0.0333333
0 91.7903 2.51682 0 0 -0 0 0 -0 0 0 -0 0 0 -0 0 0 -0 0 0 -0 0 0 -0 1.66051 0.0835086 5.75766 -0.0175111 0.895433 15.7816 7.95139e-016 -1.98785e-016 -0 5.46658e-016 -3.97569e-016 -0 5.96354e-016 0 -0 3.97569e-016 1.98785e-016 9.54166e-015 1.49089e-016 -3.97569e-016 -0 6.4605e-016 0 3.18055e-015 5.96354e-016 0 3.18055e-015 8.94531e-016 -1.98785e-016 6.36111e-015 6.4605e-016 0 3.18055e-015 5.96354e-016 0 3.18055e-015 8.94531e-016 -1.98785e-016 6.36111e-015 1.49089e-016 -3.97569e-016 -0 6.4605e-016 0 3.18055e-015 5.96354e-016 0 3.18055e-015 8.94531e-016 -1.98785e-016 6.36111e-015 6.4605e-016 0 3.18055e-015 5.96354e-016 0 3.18055e-015 8.94531e-016 -1.98785e-016 6.36111e-015 0 0 -0 -1.4496 0.0636048 -5.0245 -1.74811 1.20616 -16.8394 -1.19271e-015 1.98785e-016 -3.18055e-015 -3.97569e-016 1.98785e-016 -3.18055e-015 -2.98177e-016 1.98785e-016 -3.18055e-015 -2.98177e-016 3.97569e-016 -0 4.96962e-016 0 -6.36111e-015 -9.93923e-017 3.97569e-016 -0 -8.94531e-016 5.96354e-016 -0 -3.97569e-016 3.97569e-016 -0 -9.93923e-017 3.97569e-016 -0 -8.94531e-016 5.96354e-016 -0 -3.97569e-016 3.97569e-016 -0 4.96962e-016 0 -6.36111e-015 -9.93923e-017 3.97569e-016 -0 -8.94531e-016 5.96354e-016 -0 -3.97569e-016 3.97569e-016 -0 -9.93923e-017 3.97569e-016 -0 -8.94531e-016 5.96354e-016 -0 -3.97569e-016 3.97569e-016 -0 -4.66111 -0.998717 0.12318 0.00986924 1.54847 0.176523 4.65186 -0.572283 -0.254274 4.66111 -0.998765 -0.123176 -0.00986867 1.54869 -0.176537 -4.65186 -0.572453 0.25427 
8.12625 29.7953 4.80849 -66.6667 0 -0 1.1262 4.5261 -4.129 2.58943 8.95792 -8.38539 2.58946 8.95792 -8.3854 6.64443 -1.46461 0.230062 -0.0143725 11.1288 0.00135072 3.51486 -18.6056 18.2075 -51.1706 15.1076 -28.7549 -16.1886 -1.25216 21.6451 -3.31556e-006 -2.69543e-006 7.2769e-007 1.65488e-014 -3.18055e-015 -9.93923e-017 1.7532e-007 -3.57242e-007 -7.51373e-007 -1.7532e-007 3.57242e-007 7.51373e-007 8.79622e-015 -3.18055e-015 1.09332e-015 -3.32964e-015 -1.59028e-014 3.27995e-015 1.7532e-007 -3.57242e-007 -7.51373e-007 -1.7532e-007 3.57242e-007 7.51373e-007 -3.32964e-015 -1.59028e-014 3.27995e-015 1.7532e-007 -3.57242e-007 -7.51373e-007 -1.7532e-007 3.57242e-007 7.51373e-007 8.79622e-015 -3.18055e-015 1.09332e-015 -3.32964e-015 -1.59028e-014 3.27995e-015 1.7532e-007 -3.57242e-007 -7.51373e-007 -1.7532e-007 3.57242e-007 7.51373e-007 -3.32964e-015 -1.59028e-014 3.27995e-015 1.7532e-007 -3.57242e-007 -7.51373e-007 -1.7532e-007 3.57242e-007 7.51373e-007 -16.8704 -85.2343 -62.8817 -10.9265 -8.77226 -16.5402 22.708 13.7571 -21.3584 -10.9878 42.7715 -19.1071 6.36111e-015 -3.18055e-015 -3.18055e-015 -2.07714e-006 1.83701e-006 3.06386e-006 6.36111e-015 -1.59028e-015 -1.59028e-015 6.36111e-015 -4.77083e-015 -3.18055e-015 -9.54166e-015 -6.36111e-015 9.54166e-015 -2.07714e-006 1.83701e-006 3.06386e-006 -3.18055e-015 3.18055e-015 3.18055e-015 -9.54166e-015 -6.36111e-015 9.54166e-015 -2.07714e-006 1.83701e-006 3.06386e-006 -3.18055e-015 3.18055e-015 3.18055e-015 6.36111e-015 -4.77083e-015 -3.18055e-015 -9.54166e-015 -6.36111e-015 9.54166e-015 -2.07714e-006 1.83701e-006 3.06386e-006 -3.18055e-015 3.18055e-015 3.18055e-015 -9.54166e-015 -6.36111e-015 9.54166e-015 -2.07714e-006 1.83701e-006 3.06386e-006 -3.18055e-015 3.18055e-015 3.18055e-015 3.20527 0.716026 7.33162 1.73416 56.0281 -2.61599 2.95856 9.86293 1.86907 -7.33824 -14.9056 -0.949362 34.3654 33.2184 -65.6556 8.77912 29.6681 8.42434 
8.18948 0.191078 5.60171 -96.6667 0 -0 2.17489 6.1955 -6.13048 5.04978 12.1156 -12.6014 5.04976 12.1157 -12.6014 9.76151 -2.12323 0.337981 0.0507327 16.0425 -0.00487036 8.60785 -24.93 27.7602 -69.2666 16.9971 -45.1565 -21.6778 1.34077 21.7396 -1.13573e-006 3.09949e-006 -3.36701e-007 4.09281e-007 -3.9065e-006 5.53443e-007 3.8682e-007 3.9914e-006 -2.5706e-007 4.0928e-007 -3.9065e-006 5.53443e-007 -2.38542e-015 9.54166e-015 -1.59028e-015 4.09281e-007 -3.9065e-006 5.53443e-007 3.8682e-007 3.9914e-006 -2.5706e-007 4.0928e-007 -3.9065e-006 5.53443e-007 4.09281e-007 -3.9065e-006 5.53443e-007 3.8682e-007 3.9914e-006 -2.5706e-007 4.0928e-007 -3.9065e-006 5.53443e-007 -2.38542e-015 9.54166e-015 -1.59028e-015 4.09281e-007 -3.9065e-006 5.53443e-007 3.8682e-007 3.9914e-006 -2.5706e-007 4.0928e-007 -3.9065e-006 5.53443e-007 4.09281e-007 -3.9065e-006 5.53443e-007 3.8682e-007 3.9914e-006 -2.5706e-007 4.0928e-007 -3.9065e-006 5.53443e-007 -105.411 -52.7439 -169.457 -16.4395 -12.4249 -21.9294 28.0431 28.1769 -20.813 0.357865 60.686 -36.2965 -3.39817e-006 -8.87421e-007 -1.32461e-006 1.59028e-015 0 -9.93923e-016 -1.20948e-006 -4.57171e-007 1.09435e-006 -1.59028e-015 7.95139e-016 -3.926e-015 -3.39817e-006 -8.87421e-007 -1.32461e-006 1.59028e-015 0 -6.4605e-016 -1.20948e-006 -4.57171e-007 1.09435e-006 -3.39817e-006 -8.87421e-007 -1.32461e-006 1.59028e-015 0 -6.4605e-016 -1.20948e-006 -4.57171e-007 1.09435e-006 -1.59028e-015 7.95139e-016 -3.926e-015 -3.39817e-006 -8.87421e-007 -1.32461e-006 1.59028e-015 0 -6.4605e-016 -1.20948e-006 -4.57171e-007 1.09435e-006 -3.39817e-006 -8.87421e-007 -1.32461e-006 1.59028e-015 0 -6.4605e-016 -1.20948e-006 -4.57171e-007 1.09435e-006 6.54916 -0.160517 10.1994 25.8852 82.7486 -26.6005 2.02289 13.2145 2.95305 -11.8058 -18.4728 -0.428225 57.7214 18.5375 -85.738 13.7228 44.0522 11.4 
8.32216 6.76121 5.97215 -90 0 -0 1.96889 5.48876 -5.85762 4.52305 10.7426 -11.9819 4.52302 10.7426 -11.9819 9.3453 -1.97505 0.323552 0.195216 14.7409 -0.01857 5.9775 -22.4759 25.3227 -65.0701 16.6507 -41.0809 -20.1546 0.482066 21.7129 0 0 -1.59028e-015 7.95139e-016 -1.27222e-014 -0 7.95139e-016 -9.54166e-015 7.95139e-016 3.18055e-015 -1.59028e-014 -0 7.95139e-016 -3.18055e-015 -0 -5.56597e-015 3.18055e-015 7.95139e-015 7.95139e-016 3.18055e-015 -3.97569e-015 2.38542e-015 -6.36111e-015 -1.59028e-015 -5.56597e-015 3.18055e-015 7.95139e-015 7.95139e-016 3.18055e-015 -3.97569e-015 2.38542e-015 -6.36111e-015 -1.59028e-015 7.95139e-016 -3.18055e-015 -0 -5.56597e-015 3.18055e-015 7.95139e-015 7.95139e-016 3.18055e-015 -3.97569e-015 2.38542e-015 -6.36111e-015 -1.59028e-015 -5.56597e-015 3.18055e-015 7.95139e-015 7.95139e-016 3.18055e-015 -3.97569e-015 2.38542e-015 -6.36111e-015 -1.59028e-015 -106.997 -62.4259 -166.171 -15.3084 -11.556 -20.7086 27.7635 25.0839 -20.9942 -6.2747 56.5091 -29.3687 -1.43868e-006 3.78597e-006 2.68868e-006 -1.24382e-006 -5.45338e-007 1.01466e-006 -2.84608e-006 3.65025e-006 -3.06297e-007 -3.18055e-015 1.59028e-015 -4.77083e-015 -1.43868e-006 3.78597e-006 2.68868e-006 -1.24382e-006 -5.45338e-007 1.01466e-006 -2.84608e-006 3.65025e-006 -3.06297e-007 -1.43868e-006 3.78597e-006 2.68868e-006 -1.24382e-006 -5.45338e-007 1.01466e-006 -2.84608e-006 3.65025e-006 -3.06297e-007 -3.18055e-015 1.59028e-015 -4.77083e-015 -1.43868e-006 3.78597e-006 2.68868e-006 -1.24382e-006 -5.45338e-007 1.01466e-006 -2.84608e-006 3.65025e-006 -3.06297e-007 -1.43868e-006 3.78597e-006 2.68868e-006 -1.24382e-006 -5.45338e-007 1.01466e-006 -2.84608e-006 3.65025e-006 -3.06297e-007 5.87266 0.729481 9.42845 10.8133 76.4842 -11.6988 2.19164 12.2689 2.7152 -10.7047 -17.3154 -0.398556 53.1366 22.7619 -82.812 12.9658 40.8498 10.6763 
